<?xml version="1.0" encoding="UTF-8"?><svg id="Camada_2" xmlns="http://www.w3.org/2000/svg" viewBox="0 0 80 59.97"><defs><style>.cls-1{fill:#fff;}</style></defs><g id="OBJECTS"><path class="cls-1" d="m15.63,19.88C27.15,2.64,61.3-8.08,80,7.66c-7.87-3.83-38.99-10.05-63.48,12.6l-.89-.39Z"/><path class="cls-1" d="m30.13,26.92c.66-5.63,9.61-5.68,10.09,0h-10.09Zm48.24-4.66c.54,0,1.06.04,1.57.12v-4.33c-8.3-1.49-17.57,3.78-16.33,11.67-.27-3.09-12.62-3.63-12.13-5.85.75-2.59,6.37-1.97,8.92-.67v-4.53c-5.41-2.19-15.25-.09-15.17,5.66-3.2-10.63-22.66-6.89-21.19,4.73-.2-4.34-14.85-4.81-14.79-7.7-.34-2.36,5.28-2.3,6.38-1.48h0c1.28-1.59,2.65-3.11,4.11-4.55-10.01-5.51-26.32,6.3-12.43,12.79,17.02,2.41,9.68,10.06-1.37,3.63-1.34,1.82-2.73,3.81-3.47,5.03,6.26,4.14,21.92,4.58,22.11-4.57,1.98,6.05,8.66,8.18,15.39,6.33v-4.5c-4.32,1.35-8.57.89-9.84-3.54h15.81c.11-1.03.11-2.12,0-3.16.44,2.58,12.8,2.91,12.1,5.66-1.13,3.67-9.21,1.22-11.99-.38v5.2c6.18,3.52,18.62,1.73,18.23-5.67,2.51,5.91,10.1,7.77,15.67,6.76v-4.4c-10.8,1.91-13.27-12.21-1.57-12.26"/><path class="cls-1" d="m8.49,28.49c-1.6,1.86-4.75,6.2-6.01,8.29-1.24-.72-1.89-1.19-2.47-1.64,1.92-2.1,4.85-5.19,7.25-7.05,0,0,1.09.34,1.24.39"/><path class="cls-1" d="m79.94,57.97c-4.53.31-4.43-6.18,0-5.81v-1.94c-3.09-.11-5.75,1.56-6.25,3.93-.11-2.04-2.14-3.08-4.66-2.87v1.95c1.07,0,2.19.22,2.2,1.44-2.11-.39-5.7-.08-5.84,1.81,1.6-5.49-7.77-7.24-8.3-1.82-.41-4.99-9.38-4.17-8.83.96-.21-1.52-6.02-1.63-5.78-3.01-.05-1.12,2.31-.98,3.17-.58v-2.06c-5.47-1.6-8.6,5.18-1.83,5.85,5.71,1.51-1.2,3.32-2.86,1.01l-1.54,1.54c2.39,2.12,8.89,2.45,9.16-1.31.68,1.69,2.72,2.72,4.87,2.56v-1.84c-1.23.13-2.36-.39-2.61-1.57h6.23v3.27h2.62c.34-1.47-1.06-6.15,1.55-6.2,2.63.04,1.24,4.73,1.57,6.2h2.59v-1.77c.46,2.26,4.56,2.37,5.83.85v.93h2.51v-3.37c.57,2.27,3.24,3.91,6.21,3.77v-1.93Zm-8.69-1.36h0c-2.66,4.06-6.13-1.69,0-.52,0,.08.02.28,0,.52m-20.44-1.83c.25-2.25,3.72-2.27,3.9,0h-3.9Z"/><path class="cls-1" d="m29.29,52.06c-6.17-.78-5.96,6.27,0,5.64v2.23c-3.17.15-6.86-.92-7.76-3.72v3.74h-3.37l-5.81-6.45v6.45c-1.39,0-3.47,0-4.85,0-9.01.62-10.34-9.98-.74-10.12v2.23c-6.36.72-2.74,6.85,2.25,5.66v-7.91c3.24-.87,8.13,5.66,9.23,6.81v-6.81h3.3v3.58c.9-2.62,4.6-3.72,7.76-3.56v2.23Z"/></g></svg>